<svg xmlns="http://www.w3.org/2000/svg" width="26" height="24.838" viewBox="0 0 26 24.838">
  <path id="cordova" d="M23.638,36.282H19.429l.294-3.548H17.655l-.294,3.548H8.638l-.294-3.548H6.276l.294,3.548H2.361L0,20.9l5.91-9.458H20.09L26,20.9ZM18.9,16.179H15.11l.257,1.774H10.632l.257-1.774H7.1L4.723,20.9,5.909,30.36H20.09L21.277,20.9Zm-8.932,9.03c0-1.689-.491-2.75-.882-1.906a6.346,6.346,0,0,0,0,3.812c.391.845.882-.217.882-1.906Zm7.451-.184c0-1.689-.491-2.75-.882-1.906a6.346,6.346,0,0,0,0,3.812C16.932,27.776,17.423,26.714,17.423,25.025Z" transform="translate(0 -11.444)" fill="#7a7777"/>
</svg>
