<svg id="Group_8247" data-name="Group 8247" xmlns="http://www.w3.org/2000/svg" xmlns:xlink="http://www.w3.org/1999/xlink" width="34.008" height="34.166" viewBox="0 0 34.008 34.166">
  <defs>
    <clipPath id="clip-path">
      <rect id="Rectangle_4461" data-name="Rectangle 4461" width="34.008" height="34.166" fill="#7a7777"/>
    </clipPath>
  </defs>
  <g id="Group_8246" data-name="Group 8246" clip-path="url(#clip-path)">
    <path id="Path_5881" data-name="Path 5881" d="M34.007,16.855v.494l-.072.535c0,.025,0,.05,0,.076l.035.3c-.026.037-.07.073-.074.112-.043.4-.063.806-.121,1.2a13.946,13.946,0,0,1-.279,1.539c-.183.7-.4,1.384-.641,2.059a15.91,15.91,0,0,1-1.226,2.549,16.152,16.152,0,0,1-1.939,2.683,16.578,16.578,0,0,1-1.529,1.5,23.007,23.007,0,0,1-1.874,1.442,14.394,14.394,0,0,1-2.844,1.51c-.6.24-1.211.445-1.828.631a12.947,12.947,0,0,1-1.424.332c-.531.1-1.069.153-1.6.235-.055.009-.1.072-.153.111H16.658c-.017-.036-.034-.1-.051-.1-.2,0-.394.016-.591.026l-1.4-.108c-.493-.091-.988-.167-1.477-.276A15.993,15.993,0,0,1,9.909,32.6,17.054,17.054,0,0,1,7.469,31.21a16.077,16.077,0,0,1-3.383-3.061c-.488-.6-.945-1.221-1.377-1.859A14.24,14.24,0,0,1,1.068,23C.818,22.291.6,21.565.416,20.832a14.774,14.774,0,0,1-.273-1.717A14.555,14.555,0,0,1,0,17.424c0-.675.057-1.35.108-2.023A12.513,12.513,0,0,1,.26,14.093,17.019,17.019,0,0,1,.938,11.5,17.254,17.254,0,0,1,2.224,8.651,15.781,15.781,0,0,1,4.39,5.663,17.974,17.974,0,0,1,5.885,4.176a23.7,23.7,0,0,1,2-1.48,14.663,14.663,0,0,1,2.883-1.485A14.521,14.521,0,0,1,13.1.481c.517-.108,1.037-.2,1.556-.3L15.8.095,15.789,0h.34c-.047.045-.106.1.014.113A2.736,2.736,0,0,0,16.587.1c.026,0,.048-.068.071-.1h.567a1.058,1.058,0,0,0,.758.039l.057.085.211-.05a.51.51,0,0,0,.163.074c.309.017.618.024.928.034.2.041.4.076.591.123.729.173,1.464.326,2.184.531a15.258,15.258,0,0,1,3.572,1.6A15.935,15.935,0,0,1,28.94,4.966c.49.5.937,1.04,1.389,1.574A13.826,13.826,0,0,1,31.9,8.908a17.038,17.038,0,0,1,1.416,3.464,15.232,15.232,0,0,1,.586,3.571l.038.227v.151a1.4,1.4,0,0,0-.006.243.739.739,0,0,0,.074.178v.114ZM9.061,27.327v-.133q0-8.4,0-16.8a1.578,1.578,0,0,1,.078-.51,1.033,1.033,0,0,1,.8-.726,1.074,1.074,0,0,1,1.122.408c.467.644.924,1.295,1.39,1.939.682.945,1.369,1.886,2.05,2.832.569.79,1.13,1.585,1.7,2.376q1.114,1.55,2.233,3.1c.469.651.932,1.307,1.4,1.958.49.681.984,1.359,1.474,2.04q.892,1.239,1.78,2.481.773,1.076,1.548,2.151c.184.255.367.511.56.758.049.062.1.17.225.069.48-.39,1-.739,1.444-1.164A16.523,16.523,0,0,0,28.787,26a15.092,15.092,0,0,0,2.22-4.252,12.73,12.73,0,0,0,.577-2.466c.089-.73.127-1.469.148-2.205a12.584,12.584,0,0,0-.071-1.405,9.6,9.6,0,0,0-.159-1.328c-.171-.751-.363-1.5-.6-2.231a11.752,11.752,0,0,0-1.29-2.721c-.4-.622-.855-1.21-1.3-1.8A10.094,10.094,0,0,0,26.54,5.78c-.536-.432-1.094-.841-1.665-1.225a13.02,13.02,0,0,0-2.839-1.4,16.67,16.67,0,0,0-2.726-.7A18.056,18.056,0,0,0,17.2,2.286a10.14,10.14,0,0,0-1.351.034,10.163,10.163,0,0,0-1.4.157c-.744.158-1.486.341-2.212.569A12.772,12.772,0,0,0,9.445,4.331a14.09,14.09,0,0,0-3.44,2.864A18.544,18.544,0,0,0,4.723,8.836a13.813,13.813,0,0,0-1.815,3.794c-.194.644-.318,1.309-.46,1.967a7.977,7.977,0,0,0-.192,1.756,15.561,15.561,0,0,0,.158,3.131c.161.756.348,1.508.566,2.25a12.784,12.784,0,0,0,.923,2.2,14.171,14.171,0,0,0,1.959,2.894,15.088,15.088,0,0,0,1.33,1.332c.476.422.984.811,1.5,1.186a11.848,11.848,0,0,0,2.355,1.318,16.172,16.172,0,0,0,1.882.685,15.6,15.6,0,0,0,1.9.385,12,12,0,0,0,1.646.149c.711.01,1.425-.021,2.135-.075a10.637,10.637,0,0,0,1.459-.225,14.674,14.674,0,0,0,1.512-.418c.6-.2,1.177-.437,1.774-.661a1.234,1.234,0,0,0-.072-.141q-1.085-1.509-2.172-3.017-1.476-2.051-2.952-4.1c-.736-1.02-1.477-2.037-2.211-3.058Q14.594,18.3,13.244,16.4q-.738-1.03-1.481-2.056c-.13-.18-.263-.357-.394-.536l-.051.03V27.327Zm8.9,6.741V34.03h-.691c0,.013,0,.025,0,.037Z" transform="translate(0.001)" fill="#7a7777"/>
    <path id="Path_5882" data-name="Path 5882" d="M105.475,224.43c0-.025,0-.051,0-.076.2-.01.394-.023.591-.026.017,0,.034.066.051.1Z" transform="translate(-89.459 -190.264)" fill="#7a7777"/>
    <path id="Path_5883" data-name="Path 5883" d="M223.485,114.785l.072-.535v.569l-.072-.035" transform="translate(-189.549 -96.901)" fill="#7a7777"/>
    <path id="Path_5884" data-name="Path 5884" d="M223.518,107.9a.745.745,0,0,1-.074-.179,1.384,1.384,0,0,1,.006-.243l.068,0v.418" transform="translate(-189.51 -91.155)" fill="#7a7777"/>
    <path id="Path_5885" data-name="Path 5885" d="M223.557,117.881l-.071-.035v-.076l.072.035Z" transform="translate(-189.549 -99.887)" fill="#7a7777"/>
    <path id="Path_5886" data-name="Path 5886" d="M223.956,110.576v0Z" transform="translate(-189.948 -93.721)" fill="#7a7777"/>
    <path id="Path_5887" data-name="Path 5887" d="M114.411,224.142h-.691c0-.012,0-.025,0-.037h.691v.037" transform="translate(-96.452 -190.075)" fill="#7a7777"/>
    <rect id="Rectangle_4460" data-name="Rectangle 4460" width="2.246" height="13.651" transform="translate(22.679 9.122)" fill="#7a7777"/>
  </g>
</svg>
