<svg xmlns="http://www.w3.org/2000/svg" width="51" height="25" viewBox="0 0 51 25">
  <g id="php" transform="translate(-28.05 -214.189)">
    <path id="Path_2358" data-name="Path 2358" d="M43.635,227.53a3.182,3.182,0,0,0,1.063-2,2.115,2.115,0,0,0-.176-1.783c-.207-.223-.723-.491-2.009-.491H40.767l-.973,4.862h1.349a4.212,4.212,0,0,0,2.493-.587" fill="#56575a" fill-rule="evenodd"/>
    <path id="Path_2359" data-name="Path 2359" d="M67.42,227.53a3.182,3.182,0,0,0,1.063-2,2.111,2.111,0,0,0-.176-1.783c-.207-.223-.724-.491-2.006-.491H64.553l-.974,4.862h1.351a4.211,4.211,0,0,0,2.49-.587" fill="#56575a" fill-rule="evenodd"/>
    <path id="Path_2360" data-name="Path 2360" d="M53.552,214.189c-14.088,0-25.5,5.6-25.5,12.5s11.414,12.5,25.5,12.5,25.5-5.6,25.5-12.5-11.419-12.5-25.5-12.5m1.364,16.72a.4.4,0,0,1-.086-.332l1.2-5.985c.148-.744.013-.981-.051-1.045s-.328-.242-1.214-.242H52.695L51.2,230.73a.406.406,0,0,1-.405.324H47.775a.425.425,0,0,1-.322-.145.388.388,0,0,1-.085-.332l.544-2.7a6.567,6.567,0,0,1-1.29,1.549,5.856,5.856,0,0,1-2.18,1.262,10.086,10.086,0,0,1-2.969.371H39.2l-.655,3.271a.412.412,0,0,1-.411.327H35.089a.433.433,0,0,1-.32-.145.411.411,0,0,1-.086-.335L37.4,220.645a.425.425,0,0,1,.412-.326h5.858A5.387,5.387,0,0,1,47.84,221.8a3.726,3.726,0,0,1,.9,1.934l1.345-6.686a.407.407,0,0,1,.405-.324h3.024a.418.418,0,0,1,.319.146.393.393,0,0,1,.09.331l-.628,3.12h2.194a5.678,5.678,0,0,1,3.785.964,3.14,3.14,0,0,1,.7,3.154l-1.264,6.293a.41.41,0,0,1-.407.324H55.238a.425.425,0,0,1-.322-.145m17.362-5.022a6.554,6.554,0,0,1-.719,1.931,6.67,6.67,0,0,1-1.323,1.6,5.87,5.87,0,0,1-2.183,1.262,10.081,10.081,0,0,1-2.971.371H62.814l-.655,3.271a.413.413,0,0,1-.41.327H58.7a.424.424,0,0,1-.32-.145.407.407,0,0,1-.085-.335l2.717-13.528a.414.414,0,0,1,.409-.326h5.859a5.374,5.374,0,0,1,4.167,1.479,4.5,4.5,0,0,1,.829,4.089" fill="#56575a" fill-rule="evenodd"/>
  </g>
</svg>
