<svg xmlns="http://www.w3.org/2000/svg" width="26.511" height="23.589" viewBox="0 0 26.511 23.589">
  <path id="xamarin" d="M7.649,1.323A2.1,2.1,0,0,0,5.872,2.35L.266,12.09a2.119,2.119,0,0,0,0,2.057l5.606,9.738a2.1,2.1,0,0,0,1.777,1.027H18.861a2.1,2.1,0,0,0,1.777-1.027l5.606-9.738a2.119,2.119,0,0,0,0-2.057L20.638,2.351a2.1,2.1,0,0,0-1.777-1.027Zm.1,5.7a.243.243,0,0,1,.047,0H9.732a.254.254,0,0,1,.212.126l3.281,5.846a.252.252,0,0,1,.031.095.252.252,0,0,1,.031-.095l3.273-5.846a.255.255,0,0,1,.219-.126h1.934a.265.265,0,0,1,.22.369l-3.2,5.728,3.2,5.721a.264.264,0,0,1-.22.376H16.779a.256.256,0,0,1-.221-.133l-3.272-5.846a.252.252,0,0,1-.031-.1.252.252,0,0,1-.031.095L9.944,19.079a.255.255,0,0,1-.212.133H7.8a.264.264,0,0,1-.22-.376l3.2-5.72-3.2-5.728a.263.263,0,0,1,.172-.369Z" transform="translate(0 -1.323)" fill="#7a7777"/>
</svg>
