<svg
          xmlns="http://www.w3.org/2000/svg"
          width="216.756"
          height="37.395"
          viewBox="0 0 216.756 37.395"
        >
          <g id="logo-rgb-01" transform="translate(-3.428 -1.495)">
            <path
              id="Path_5001"
              data-name="Path 5001"
              d="M32.819,4.86A8.561,8.561,0,0,1,27.684,12.3l-.086.036a14.142,14.142,0,0,1-5.377.973,28.166,28.166,0,0,1-10.8-2.206,8.206,8.206,0,0,1,3.345-4.964,25.041,25.041,0,0,0,7.615,1.407,6.433,6.433,0,0,0,2.78-.519A1.862,1.862,0,0,0,26.21,5.346v-3.4A18.693,18.693,0,0,0,11.434,35.525a8.561,8.561,0,0,1,5.136-7.436l.086-.036a14.146,14.146,0,0,1,5.377-.973,28.166,28.166,0,0,1,10.8,2.206,8.207,8.207,0,0,1-3.345,4.964,25.042,25.042,0,0,0-7.615-1.407,6.433,6.433,0,0,0-2.781.519,1.869,1.869,0,0,0-1.054,1.682v3.392A18.693,18.693,0,0,0,32.819,4.86ZM16.34,21.561a8.073,8.073,0,0,1-3.776-2.5c-.14-.152-.268-.311-.392-.473l-.025-.033a6.441,6.441,0,0,1-.516-.8l0,0c-.091-.168-.191-.33-.268-.508h.02a8.159,8.159,0,0,1-.8-3.3c.9.221,16.274,3.966,17.334,4.38h0A14.488,14.488,0,0,1,30,19.314a8.216,8.216,0,0,1,1.688,1.506c.139.152.267.311.391.472l.025.034a6.463,6.463,0,0,1,.515.8l0,.006c.091.167.19.329.267.506h-.02a8.159,8.159,0,0,1,.8,3.3C32.779,25.72,17.4,21.975,16.34,21.561Z"
              transform="translate(0 0)"
              fill="#3abdff"
            />
            <path
              id="Path_5002"
              data-name="Path 5002"
              d="M192.044,44.29c0,4.586-3.675,7.283-9.205,7.283a18.365,18.365,0,0,1-9.88-2.259l1.754-3.743a16.869,16.869,0,0,0,8.295,1.821c2.6,0,4.147-.944,4.147-2.7,0-1.619-1.585-2.327-5.058-3.136-4.889-1.113-8.835-2.5-8.835-7.182,0-4.181,3.339-7.148,8.767-7.148a23.081,23.081,0,0,1,9.1,1.922l-1.955,3.844a20.9,20.9,0,0,0-7.25-1.585c-2.428,0-3.776,1.079-3.776,2.562,0,1.686,1.686,2.394,5.26,3.2C188.538,38.321,192.044,39.939,192.044,44.29Z"
              transform="translate(-120.768 -18.331)"
            />
            <path
              id="Path_5003"
              data-name="Path 5003"
              d="M263.562,55.46c0,5.226-4.484,9.442-10.015,9.442s-10.015-4.215-10.015-9.442a10.03,10.03,0,0,1,20.03,0Zm-4.62,0a5.4,5.4,0,0,0-10.79,0,5.4,5.4,0,0,0,10.79,0Z"
              transform="translate(-171.042 -31.693)"
            />
            <path
              id="Path_5004"
              data-name="Path 5004"
              d="M320.556,22.421h4.72V47.845h-4.72Z"
              transform="translate(-225.911 -14.907)"
            />
            <path
              id="Path_5005"
              data-name="Path 5005"
              d="M364.316,47.157v18.31h-4.687V64.253a8.8,8.8,0,0,1-4.99,1.484c-5.361,0-7.823-2.5-7.823-8.43V47.157H351.5v10.15c0,2.832,1.382,4.215,3.979,4.215a6.259,6.259,0,0,0,4.147-1.45V47.157Z"
              transform="translate(-244.618 -32.529)"
            />
            <path
              id="Path_5006"
              data-name="Path 5006"
              d="M463.931,26.627a2.684,2.684,0,0,0,2.664-2.731,2.714,2.714,0,0,0-2.664-2.765,2.742,2.742,0,0,0-2.7,2.765,2.713,2.713,0,0,0,2.7,2.731Z"
              transform="translate(-326.125 -13.989)"
            />
            <path
              id="Path_5007"
              data-name="Path 5007"
              d="M420.251,29.536V22.421h-4.72v7.115h-2.6v3.877h2.6v8.936c0,3.844,2.462,5.766,5.53,5.766a11.518,11.518,0,0,0,4.248-.675V43.934a19.4,19.4,0,0,1-2.158.169c-2.361,0-2.9-.944-2.9-4.215V33.413H427.2V47.845h4.687V29.536Z"
              transform="translate(-291.717 -14.907)"
            />
            <path
              id="Path_5008"
              data-name="Path 5008"
              d="M506.233,55.46c0,5.226-4.485,9.442-10.015,9.442S486.2,60.686,486.2,55.46a10.03,10.03,0,0,1,20.03,0Zm-4.62,0a5.4,5.4,0,0,0-10.79,0,5.4,5.4,0,0,0,10.79,0Z"
              transform="translate(-343.912 -31.693)"
            />
            <path
              id="Path_5009"
              data-name="Path 5009"
              d="M580.391,54.413V64.63H575.7V54.413c0-2.833-1.383-4.215-3.979-4.215a5.987,5.987,0,0,0-4.047,1.45V64.63h-4.688V46.32h4.687v1.146a8.472,8.472,0,0,1,4.889-1.484C577.929,45.983,580.391,48.478,580.391,54.413Z"
              transform="translate(-398.614 -31.692)"
            />
            <path
              id="Path_5010"
              data-name="Path 5010"
              d="M634.618,56.808a5.058,5.058,0,0,0,5.227,4.081,5.869,5.869,0,0,0,4.721-2.259l3,2.495a10.084,10.084,0,0,1-8.261,3.777,9.459,9.459,0,0,1,0-18.917c5.632,0,8.9,4.08,8.9,9.779,0,.371-.033.742-.033,1.045Zm.034-3h9.071a4.04,4.04,0,0,0-4.417-4.08,4.779,4.779,0,0,0-4.654,4.08Z"
              transform="translate(-446.3 -31.693)"
            />
            <path
              id="Path_5011"
              data-name="Path 5011"
              d="M714.435,61.226a8.8,8.8,0,0,1-7.081,3.676c-5.53,0-10.015-4.215-10.015-9.442a9.739,9.739,0,0,1,10.015-9.475,8.847,8.847,0,0,1,7.149,3.642l-3.035,2.8a4.98,4.98,0,0,0-4.114-2.225,5.246,5.246,0,1,0,0,10.487,4.929,4.929,0,0,0,4.114-2.259Z"
              transform="translate(-494.319 -31.693)"
            />
          </g>
        </svg>